<?xml version="1.0" encoding="UTF-8"?>
<!DOCTYPE svg PUBLIC "-//W3C//DTD SVG 1.1//EN" "http://www.w3.org/Graphics/SVG/1.1/DTD/svg11.dtd">
<svg xmlns="http://www.w3.org/2000/svg" version="1.1" width="1192px" height="850px" style="shape-rendering:geometricPrecision; text-rendering:geometricPrecision; image-rendering:optimizeQuality; fill-rule:evenodd; clip-rule:evenodd" xmlns:xlink="http://www.w3.org/1999/xlink">
<g><path style="opacity:1" fill="#39aae1" d="M 643.5,273.5 C 659.91,273.516 674.91,278.016 688.5,287C 701.707,297.245 708.707,310.745 709.5,327.5C 729.907,337.278 740.573,353.611 741.5,376.5C 741.161,387.706 737.827,397.873 731.5,407C 760.012,417.83 776.845,438.33 782,468.5C 782.709,478.596 782.376,488.596 781,498.5C 797.873,508.403 806.04,523.236 805.5,543C 805.94,563.122 797.94,578.789 781.5,590C 776.184,592.994 770.518,594.994 764.5,596C 668.5,596.667 572.5,596.667 476.5,596C 447.215,591.383 430.882,574.383 427.5,545C 428.472,529.217 435.305,516.717 448,507.5C 446.271,470.46 460.438,441.294 490.5,420C 499.794,414.513 509.794,411.346 520.5,410.5C 512.672,368.131 527.005,335.631 563.5,313C 573.151,308.727 583.151,305.561 593.5,303.5C 600.525,288.629 612.191,279.462 628.5,276C 633.643,275.162 638.643,274.328 643.5,273.5 Z"/></g>
<g><path style="opacity:1" fill="#fefefe" d="M 686.5,522.5 C 686.818,513.249 686.485,504.083 685.5,495C 662.948,484.224 640.282,473.724 617.5,463.5C 594.718,473.724 572.052,484.224 549.5,495C 548.517,503.415 548.183,511.915 548.5,520.5C 542.341,520.216 536.341,521.049 530.5,523C 539.599,523.565 548.099,526.065 556,530.5C 557.187,532.044 557.52,533.711 557,535.5C 554.441,538.531 551.274,540.698 547.5,542C 542.834,546.006 542.334,550.506 546,555.5C 549.528,559.675 553.695,563.008 558.5,565.5C 556.707,568.566 554.04,570.4 550.5,571C 529.926,573.874 510.926,569.874 493.5,559C 481.149,547.805 473.316,533.972 470,517.5C 467.261,547.878 479.761,569.044 507.5,581C 497.833,581.667 488.167,581.667 478.5,581C 453.874,576.724 442.374,562.224 444,537.5C 445.139,533.888 446.806,530.554 449,527.5C 453.667,522.684 458.667,518.351 464,514.5C 459.841,482.627 470.007,456.461 494.5,436C 506.078,427.022 519.078,423.856 533.5,426.5C 539.506,425.141 542.006,421.475 541,415.5C 537.319,410.804 534.986,405.471 534,399.5C 531.166,364.66 545.333,339.493 576.5,324C 586.312,320.971 596.312,318.971 606.5,318C 607.955,313.606 609.122,309.106 610,304.5C 619.075,294.219 630.575,289.219 644.5,289.5C 662.213,288.783 676.713,295.116 688,308.5C 692.885,315.738 693.718,323.405 690.5,331.5C 690.887,333.274 691.553,334.941 692.5,336.5C 699.39,339.523 706.057,343.023 712.5,347C 726.936,361.939 729.436,378.772 720,397.5C 716.333,402.5 712,406.833 707,410.5C 705.639,415.274 707.139,418.774 711.5,421C 731.003,420.501 746.169,428.334 757,444.5C 768.431,462.164 770.431,480.83 763,500.5C 761.622,504.898 762.788,508.398 766.5,511C 779.627,513.46 787.46,521.293 790,534.5C 792.462,550.392 787.962,563.892 776.5,575C 771.643,578.176 766.31,580.176 760.5,581C 749.833,581.667 739.167,581.667 728.5,581C 755.021,565.769 765.188,542.936 759,512.5C 753.354,556.136 728.52,576.303 684.5,573C 681.397,571.719 678.731,569.886 676.5,567.5C 680.118,565.056 683.618,562.39 687,559.5C 690.186,555.702 691.186,551.368 690,546.5C 685.821,543.743 681.821,540.743 678,537.5C 677.941,532.867 680.274,529.867 685,528.5C 690.917,526.142 697.084,524.975 703.5,525C 697.986,523.284 692.32,522.45 686.5,522.5 Z"/></g>
<g><path style="opacity:1" fill="#3face2" d="M 627.5,332.5 C 628.873,332.343 630.207,332.51 631.5,333C 632.711,333.893 632.711,334.726 631.5,335.5C 625.067,338.367 618.4,340.533 611.5,342C 611.043,342.414 610.709,342.914 610.5,343.5C 614.901,348.868 620.568,351.868 627.5,352.5C 626.909,355.614 625.242,358.114 622.5,360C 633.804,359.931 643.638,356.097 652,348.5C 653.298,345.146 655.464,342.812 658.5,341.5C 653.811,355.686 644.144,364.519 629.5,368C 622.283,369.405 615.616,368.071 609.5,364C 608.253,362.506 608.253,361.006 609.5,359.5C 612.329,358.253 614.995,356.753 617.5,355C 612.118,353.476 607.118,351.142 602.5,348C 598.009,344.805 597.676,341.471 601.5,338C 610.321,336.258 618.988,334.424 627.5,332.5 Z"/></g>
<g><path style="opacity:1" fill="#3aaae2" d="M 602.5,377.5 C 608.902,377.578 611.569,380.911 610.5,387.5C 610.868,395.104 607.868,400.77 601.5,404.5C 596.818,402.646 594.818,399.146 595.5,394C 595.519,387.468 597.852,381.968 602.5,377.5 Z"/></g>
<g><path style="opacity:1" fill="#3aaae2" d="M 655.5,383.5 C 662.354,382.857 665.354,386.023 664.5,393C 664.358,397.76 663.192,402.26 661,406.5C 657.982,411.265 654.649,411.598 651,407.5C 648.12,398.648 649.62,390.648 655.5,383.5 Z"/></g>
<g><path style="opacity:1" fill="#3eace2" d="M 589.5,404.5 C 590.873,404.343 592.207,404.51 593.5,405C 599.687,415.775 609.02,422.108 621.5,424C 637.012,426.122 651.012,422.622 663.5,413.5C 666.82,413.638 668.487,415.305 668.5,418.5C 666.801,418.34 665.134,418.506 663.5,419C 657.87,425.317 650.87,429.317 642.5,431C 626.784,435.05 612.45,432.383 599.5,423C 595.855,419.547 593.355,415.38 592,410.5C 587.456,409.684 586.623,407.684 589.5,404.5 Z"/></g>
<g><path style="opacity:1" fill="#fed906" d="M 686.5,522.5 C 672.735,523.399 667.235,530.399 670,543.5C 671.793,546.295 673.96,548.795 676.5,551C 673.755,553.035 670.755,554.701 667.5,556C 662.789,560.14 661.289,565.306 663,571.5C 664.329,574.829 666.163,577.829 668.5,580.5C 633.996,580.832 599.663,580.498 565.5,579.5C 573.411,572.127 574.411,563.961 568.5,555C 565.006,553.421 561.673,551.587 558.5,549.5C 560.856,546.978 563.023,544.312 565,541.5C 567.714,535.153 566.547,529.653 561.5,525C 557.212,523.021 552.878,521.521 548.5,520.5C 548.183,511.915 548.517,503.415 549.5,495C 572.052,484.224 594.718,473.724 617.5,463.5C 640.282,473.724 662.948,484.224 685.5,495C 686.485,504.083 686.818,513.249 686.5,522.5 Z"/></g>
<g><path style="opacity:1" fill="#fefffe" d="M 583.5,510.5 C 591.5,510.5 599.5,510.5 607.5,510.5C 607.5,518.5 607.5,526.5 607.5,534.5C 599.5,534.5 591.5,534.5 583.5,534.5C 583.5,526.5 583.5,518.5 583.5,510.5 Z"/></g>
<g><path style="opacity:1" fill="#fefffe" d="M 627.5,510.5 C 635.5,510.5 643.5,510.5 651.5,510.5C 651.5,518.5 651.5,526.5 651.5,534.5C 643.5,534.5 635.5,534.5 627.5,534.5C 627.5,526.5 627.5,518.5 627.5,510.5 Z"/></g>
<g><path style="opacity:1" fill="#eae274" d="M 565.5,579.5 C 599.663,580.498 633.996,580.832 668.5,580.5C 634.238,581.663 599.238,581.829 563.5,581C 564.044,580.283 564.711,579.783 565.5,579.5 Z"/></g>
</svg>
