<?xml version="1.0" encoding="UTF-8"?>
<!DOCTYPE svg PUBLIC "-//W3C//DTD SVG 1.1//EN" "http://www.w3.org/Graphics/SVG/1.1/DTD/svg11.dtd">
<svg xmlns="http://www.w3.org/2000/svg" version="1.1" width="816px" height="749px" style="shape-rendering:geometricPrecision; text-rendering:geometricPrecision; image-rendering:optimizeQuality; fill-rule:evenodd; clip-rule:evenodd" xmlns:xlink="http://www.w3.org/1999/xlink">
<g><path style="opacity:0.994" fill="#02cf67" d="M 492.5,-0.5 C 493.167,-0.5 493.833,-0.5 494.5,-0.5C 596.394,1.80559 686.727,34.9723 765.5,99C 782.432,113.583 795.932,130.75 806,150.5C 810.274,160.622 813.441,170.956 815.5,181.5C 815.5,190.833 815.5,200.167 815.5,209.5C 808.508,244.958 789.508,272.125 758.5,291C 722.143,311.405 683.143,319.405 641.5,315C 610.814,311.831 580.48,306.664 550.5,299.5C 541.432,309.532 530.766,317.365 518.5,323C 496.825,331.223 474.492,333.889 451.5,331C 444.521,330.231 438.188,327.898 432.5,324C 449.557,319.944 460.39,309.444 465,292.5C 467.031,285.949 468.031,279.282 468,272.5C 429.904,257.997 395.07,238.164 363.5,213C 340.562,193.734 324.395,169.901 315,141.5C 305.653,102.547 315.819,69.7132 345.5,43C 368.389,24.56 394.389,12.56 423.5,7C 446.428,2.4183 469.428,-0.0817 492.5,-0.5 Z"/></g>
<g><path style="opacity:1" fill="#fdfefd" d="M 410.5,53.5 C 420.465,55.9912 430.465,58.4912 440.5,61C 464.602,67.7037 472.436,82.8703 464,106.5C 456.045,121.429 443.545,129.595 426.5,131C 419.167,131.333 411.833,131.667 404.5,132C 400.662,142.679 397.329,153.513 394.5,164.5C 387.078,163.596 379.745,162.263 372.5,160.5C 384.375,124.542 397.041,88.8754 410.5,53.5 Z"/></g>
<g><path style="opacity:0.983" fill="#623a11" d="M 194.5,748.5 C 182.833,748.5 171.167,748.5 159.5,748.5C 122.29,744.04 87.9564,731.54 56.5,711C 47.0793,704.25 38.246,696.75 30,688.5C 27.3649,685.264 26.3649,681.597 27,677.5C 33.8309,667.684 38.3309,656.851 40.5,645C 29.8178,634.321 20.6512,622.487 13,609.5C 5.94283,595.836 1.44283,581.502 -0.5,566.5C -0.5,557.5 -0.5,548.5 -0.5,539.5C 5.39789,500.694 18.8979,464.694 40,431.5C 51.9916,415.508 66.9916,403.175 85,394.5C 89.6667,385.833 94.3333,377.167 99,368.5C 109.47,352.507 124.303,343.507 143.5,341.5C 142.428,329.641 140.262,317.975 137,306.5C 122.864,265.425 109.531,224.092 97,182.5C 91.9643,164.137 90.2977,145.47 92,126.5C 96.4469,104.376 109.28,89.2089 130.5,81C 168.269,70.0259 202.602,76.6926 233.5,101C 258.099,124.044 270.933,152.544 272,186.5C 277.865,237.338 281.365,288.338 282.5,339.5C 282.014,356.536 281.014,373.536 279.5,390.5C 280.165,395.481 280.665,400.481 281,405.5C 287.187,419.393 292.187,433.726 296,448.5C 302.748,457.362 310.915,458.862 320.5,453C 325.301,449.201 329.801,445.034 334,440.5C 345.258,422.234 358.425,405.4 373.5,390C 386.41,378.378 401.41,370.711 418.5,367C 448.486,363.247 471.986,373.747 489,398.5C 497.218,411.324 497.552,424.324 490,437.5C 485.833,442.333 481.667,447.167 477.5,452C 452.326,471.502 431.826,495.002 416,522.5C 401.842,550.152 387.176,577.485 372,604.5C 357.662,627.838 339.495,647.672 317.5,664C 301.392,674.456 285.059,684.456 268.5,694C 270.835,700.663 271.668,707.497 271,714.5C 249.092,733.87 223.592,745.203 194.5,748.5 Z"/></g>
<g><path style="opacity:1" fill="#13d06a" d="M 423.5,78.5 C 429.89,78.4308 435.89,79.9308 441.5,83C 446.986,89.7988 446.319,96.1322 439.5,102C 431.122,107.96 421.789,111.46 411.5,112.5C 415.299,101.103 419.299,89.7695 423.5,78.5 Z"/></g>
<g><path style="opacity:1" fill="#feefe5" d="M 156.5,95.5 C 208.784,96.2905 239.951,122.291 250,173.5C 255.11,215.707 258.776,258.04 261,300.5C 261.862,327.852 261.529,355.185 260,382.5C 232.981,356.878 200.814,343.211 163.5,341.5C 162.119,323.428 158.619,305.762 153,288.5C 140.724,253.339 129.057,218.005 118,182.5C 112.53,164.545 110.53,146.212 112,127.5C 116.346,114.152 125.179,104.985 138.5,100C 144.479,97.8385 150.479,96.3385 156.5,95.5 Z"/></g>
<g><path style="opacity:1" fill="#fbfefc" d="M 574.5,100.5 C 584.497,98.5875 591.997,101.921 597,110.5C 598.209,124.684 591.709,130.184 577.5,127C 566.281,122.397 563.781,114.897 570,104.5C 571.667,103.267 573.167,101.933 574.5,100.5 Z"/></g>
<g><path style="opacity:1" fill="#fdfefd" d="M 493.5,114.5 C 504.695,112.923 515.028,115.089 524.5,121C 532.124,127.872 534.957,136.372 533,146.5C 530.292,163.776 522.126,177.61 508.5,188C 499.133,193.192 489.133,194.858 478.5,193C 461.454,187.264 454.288,175.43 457,157.5C 462.199,137.143 474.366,122.81 493.5,114.5 Z"/></g>
<g><path style="opacity:1" fill="#0ecf69" d="M 501.5,131.5 C 510.207,131.037 513.707,135.037 512,143.5C 509.183,156.993 501.683,166.826 489.5,173C 477.887,173.688 474.387,168.521 479,157.5C 483.97,146.504 491.47,137.837 501.5,131.5 Z"/></g>
<g><path style="opacity:1" fill="#fcfefd" d="M 564.5,134.5 C 571.459,135.572 578.125,137.572 584.5,140.5C 575.034,164.565 566.367,188.899 558.5,213.5C 550.437,211.989 542.437,210.155 534.5,208C 544.092,183.319 554.092,158.819 564.5,134.5 Z"/></g>
<g><path style="opacity:1" fill="#fcfefd" d="M 734.5,146.5 C 740.093,148.149 745.76,149.649 751.5,151C 752.428,151.388 753.095,152.055 753.5,153C 747.861,167.42 742.528,181.92 737.5,196.5C 744.833,198.167 752.167,199.833 759.5,201.5C 758.644,205.57 757.477,209.57 756,213.5C 755.481,214.516 754.647,215.182 753.5,215.5C 746.153,213.829 738.819,212.163 731.5,210.5C 726.373,227.215 721.04,243.882 715.5,260.5C 714.667,260.833 713.833,261.167 713,261.5C 706.203,259.592 699.369,257.926 692.5,256.5C 698.003,240.159 704.003,223.992 710.5,208C 702.655,206.065 694.655,204.565 686.5,203.5C 688.5,197.167 690.5,190.833 692.5,184.5C 700.728,185.612 708.728,187.612 716.5,190.5C 723.067,176.038 729.067,161.371 734.5,146.5 Z"/></g>
<g><path style="opacity:1" fill="#fcfefd" d="M 616.5,150.5 C 623.643,151.201 630.643,152.701 637.5,155C 636.601,157.192 635.601,159.358 634.5,161.5C 638.209,162.169 641.875,161.669 645.5,160C 653.135,158.818 660.469,159.818 667.5,163C 674.976,167.415 677.809,173.915 676,182.5C 669.178,202.805 661.678,222.805 653.5,242.5C 647.536,240.568 641.536,238.734 635.5,237C 634.978,236.439 634.645,235.772 634.5,235C 639.803,219.424 645.303,203.924 651,188.5C 652.165,184.316 650.665,181.483 646.5,180C 638.272,179.019 630.939,181.186 624.5,186.5C 618.763,200.97 612.763,215.303 606.5,229.5C 600.031,228.133 593.697,226.299 587.5,224C 597.309,199.55 606.976,175.05 616.5,150.5 Z"/></g>
<g><path style="opacity:1" fill="#feefe4" d="M 154.5,360.5 C 192.488,360.58 224.654,374.247 251,401.5C 265.339,418.015 273.506,437.181 275.5,459C 276.388,474.059 270.555,485.559 258,493.5C 250.784,470.217 237.951,450.717 219.5,435C 209.06,428.517 197.726,424.184 185.5,422C 161.034,417.586 136.367,415.919 111.5,417C 104.933,421.21 103.766,426.71 108,433.5C 109.255,434.211 110.421,435.044 111.5,436C 138.475,435.764 165.141,438.431 191.5,444C 196.739,445.413 201.739,447.413 206.5,450C 223.419,464.679 234.586,482.846 240,504.5C 241.141,511.804 240.141,518.804 237,525.5C 231.216,537.768 224.05,549.101 215.5,559.5C 207.943,541.087 196.61,525.254 181.5,512C 165.891,502.128 148.891,495.794 130.5,493C 109.176,491.82 87.8428,491.487 66.5,492C 59.8333,498 59.8333,504 66.5,510C 86.8517,511.06 107.185,512.393 127.5,514C 163.158,516.657 185.991,535.157 196,569.5C 197.509,576.757 196.175,583.423 192,589.5C 181.99,602.835 168.824,611.335 152.5,615C 139.997,616.666 129.497,612.832 121,603.5C 120.018,602.241 119.685,600.908 120,599.5C 125.047,596.12 129.047,591.786 132,586.5C 133.573,579.807 131.406,574.641 125.5,571C 103.577,558.509 80.2433,554.842 55.5,560C 48.2259,561.717 45.3925,566.217 47,573.5C 48.5,576.333 50.6667,578.5 53.5,580C 57.8832,579.992 62.2165,579.326 66.5,578C 80.7231,576.245 94.3897,578.245 107.5,584C 98.6536,592.273 97.1536,601.773 103,612.5C 120.685,634.311 142.851,640.478 169.5,631C 184.945,624.553 197.778,614.72 208,601.5C 211.588,596.324 214.088,590.657 215.5,584.5C 225.096,579.071 232.929,571.738 239,562.5C 244.853,553.46 250.186,544.127 255,534.5C 257.697,528.079 259.364,521.412 260,514.5C 278.884,507.111 290.384,493.444 294.5,473.5C 300.742,477.083 307.409,478.249 314.5,477C 328.609,473.568 340.109,466.068 349,454.5C 358.667,441.167 368.333,427.833 378,414.5C 389.502,401.169 403.669,392.002 420.5,387C 445.131,384.232 463.298,393.732 475,415.5C 475.667,417.5 475.667,419.5 475,421.5C 473.416,425.675 471.082,429.341 468,432.5C 456.477,442.6 445.144,452.933 434,463.5C 426.762,471.648 419.762,479.981 413,488.5C 406.936,497.57 401.269,506.903 396,516.5C 379.945,550.295 361.611,582.628 341,613.5C 327.305,630.531 311.138,644.698 292.5,656C 282.33,662.252 271.997,668.252 261.5,674C 241.924,679.947 221.924,683.614 201.5,685C 192.167,691.333 192.167,697.667 201.5,704C 217.637,703.529 233.637,701.695 249.5,698.5C 250.006,702.007 249.34,705.174 247.5,708C 218.305,726.106 186.638,732.439 152.5,727C 113.457,721.139 79.4571,705.139 50.5,679C 53.2772,672.161 55.9438,665.328 58.5,658.5C 67.033,664.197 75.6997,669.697 84.5,675C 87.9597,677.065 91.6264,678.565 95.5,679.5C 103.701,677.783 106.868,672.783 105,664.5C 95.4192,657.958 85.5859,651.791 75.5,646C 22.5441,610.127 7.04411,561.96 29,501.5C 36.0593,477.713 47.0593,456.047 62,436.5C 70.1519,427.013 79.9852,419.847 91.5,415C 94.9393,412.861 98.106,410.361 101,407.5C 106.175,399.152 110.842,390.485 115,381.5C 119.793,372.703 126.96,366.869 136.5,364C 142.68,363.053 148.68,361.886 154.5,360.5 Z"/></g>
</svg>
