<?xml version="1.0" encoding="UTF-8"?>
<!DOCTYPE svg PUBLIC "-//W3C//DTD SVG 1.1//EN" "http://www.w3.org/Graphics/SVG/1.1/DTD/svg11.dtd">
<svg xmlns="http://www.w3.org/2000/svg" version="1.1" width="607px" height="244px" style="shape-rendering:geometricPrecision; text-rendering:geometricPrecision; image-rendering:optimizeQuality; fill-rule:evenodd; clip-rule:evenodd" xmlns:xlink="http://www.w3.org/1999/xlink">
<g><path style="opacity:1" fill="#fdfefe" d="M -0.5,-0.5 C 201.833,-0.5 404.167,-0.5 606.5,-0.5C 606.5,80.8333 606.5,162.167 606.5,243.5C 404.167,243.5 201.833,243.5 -0.5,243.5C -0.5,162.167 -0.5,80.8333 -0.5,-0.5 Z"/></g>
<g><path style="opacity:1" fill="#208ccf" d="M 504.5,108.5 C 506.378,112.758 507.044,117.091 506.5,121.5C 517.172,125.502 527.838,125.336 538.5,121C 545.094,117.072 549.427,111.405 551.5,104C 549.004,94.3438 546.004,84.8438 542.5,75.5C 520.515,73.899 498.515,72.399 476.5,71C 471.744,68.6608 470.577,65.1608 473,60.5C 474.532,58.4376 476.532,57.1043 479,56.5C 485.815,30.5065 502.648,18.3398 529.5,20C 551.649,25.1572 563.982,38.9905 566.5,61.5C 572.095,62.5601 573.929,65.8935 572,71.5C 571.173,72.6621 570.34,73.8288 569.5,75C 572.644,85.7479 568.977,92.5812 558.5,95.5C 557.841,101.64 556.174,107.474 553.5,113C 564.419,120.315 571.253,130.482 574,143.5C 574.812,150.747 574.646,157.914 573.5,165C 572.216,165.684 571.049,165.517 570,164.5C 572.352,145.035 566.186,129.035 551.5,116.5C 548.704,119.829 545.537,122.829 542,125.5C 539.378,131.107 536.045,136.107 532,140.5C 529.142,137.295 526.642,133.795 524.5,130C 521.5,129.333 518.5,129.333 515.5,130C 513.377,133.951 510.711,137.451 507.5,140.5C 504.266,136.378 501.266,132.045 498.5,127.5C 494.222,129.199 490.389,128.533 487,125.5C 486.308,126.025 485.808,126.692 485.5,127.5C 487.817,130.317 490.317,132.984 493,135.5C 494.741,138.309 495.908,141.309 496.5,144.5C 501.615,146.426 506.115,149.426 510,153.5C 510.483,154.448 510.649,155.448 510.5,156.5C 509.127,156.657 507.793,156.49 506.5,156C 503.5,153.667 500.5,151.333 497.5,149C 495.5,148.333 493.5,148.333 491.5,149C 487.881,153.074 484.381,157.241 481,161.5C 480.415,165.322 480.915,168.989 482.5,172.5C 481.127,172.657 479.793,172.49 478.5,172C 475.582,168.446 471.915,165.779 467.5,164C 466.333,162.833 465.167,161.667 464,160.5C 461.159,166.997 457.159,167.997 452,163.5C 451.333,162.167 451.333,160.833 452,159.5C 453.366,157.63 454.533,155.63 455.5,153.5C 451.607,149.423 451.607,145.423 455.5,141.5C 453.607,137.159 454.774,133.826 459,131.5C 459.36,129.392 460.027,127.392 461,125.5C 462.011,124.663 463.178,124.33 464.5,124.5C 464.888,118.95 467.888,116.45 473.5,117C 468.399,111.445 468.232,105.612 473,99.5C 473.903,98.2986 475.069,97.4652 476.5,97C 479.5,96.6667 482.5,96.3333 485.5,96C 477.64,91.9476 474.64,85.6143 476.5,77C 478.112,76.2797 479.612,76.4464 481,77.5C 481.333,80.5 481.667,83.5 482,86.5C 482.465,87.9308 483.299,89.0975 484.5,90C 489.142,90.3104 491.308,92.8104 491,97.5C 494.294,94.6888 497.294,95.0221 500,98.5C 498.127,103.39 499.627,106.723 504.5,108.5 Z"/></g>
<g><path style="opacity:1" fill="#f9fcfd" d="M 514.5,25.5 C 534.526,23.0924 549.026,30.759 558,48.5C 558.49,49.7932 558.657,51.1266 558.5,52.5C 550.167,52.5 541.833,52.5 533.5,52.5C 533.286,54.1439 533.62,55.6439 534.5,57C 543.166,57.5833 551.833,58.0833 560.5,58.5C 560.5,61.1667 560.5,63.8333 560.5,66.5C 562.833,66.5 565.167,66.5 567.5,66.5C 567.5,67.5 567.5,68.5 567.5,69.5C 537.818,68.7811 508.151,67.6144 478.5,66C 477.167,65 477.167,64 478.5,63C 480.473,62.5045 482.473,62.3379 484.5,62.5C 484.5,60.1667 484.5,57.8333 484.5,55.5C 491.167,55.5 497.833,55.5 504.5,55.5C 504.714,53.8561 504.38,52.3561 503.5,51C 497.804,50.8299 492.138,50.3299 486.5,49.5C 492.315,37.278 501.648,29.278 514.5,25.5 Z"/></g>
<g><path style="opacity:1" fill="#2b90d1" d="M 76.5,32.5 C 79.1682,33.4567 80.6682,35.4567 81,38.5C 82.567,49.9403 77.7337,55.7736 66.5,56C 65.4829,54.9505 65.3162,53.7839 66,52.5C 75.6123,50.4414 78.4457,44.9414 74.5,36C 74.9783,34.6974 75.645,33.5307 76.5,32.5 Z"/></g>
<g><path style="opacity:1" fill="#1b8bcf" d="M 96.5,32.5 C 98.7525,32.9156 100.252,34.249 101,36.5C 103.666,48.8871 98.8324,55.5538 86.5,56.5C 86.3433,55.1266 86.51,53.7932 87,52.5C 91.0291,51.9892 94.0291,49.9892 96,46.5C 96.1041,41.7329 96.2707,37.0663 96.5,32.5 Z"/></g>
<g><path style="opacity:1" fill="#2f91d1" d="M 115.5,33.5 C 117.288,33.2148 118.955,33.5481 120.5,34.5C 124.895,47.7245 120.228,55.0578 106.5,56.5C 106.286,54.8561 106.62,53.3561 107.5,52C 110.973,51.6806 113.806,50.1806 116,47.5C 116.564,42.8065 116.397,38.1398 115.5,33.5 Z"/></g>
<g><path style="opacity:1" fill="#298fcc" d="M 149.5,38.5 C 171.289,38.4777 180.789,49.1444 178,70.5C 171.013,85.718 159.679,90.3847 144,84.5C 139.575,85.8982 135.075,86.8982 130.5,87.5C 130.474,82.7719 131.474,78.2719 133.5,74C 127.553,57.0627 132.886,45.2294 149.5,38.5 Z"/></g>
<g><path style="opacity:1" fill="#f8ef44" d="M 149.5,42.5 C 160.729,41.1966 168.896,45.53 174,55.5C 177.557,71.7834 171.057,81.1168 154.5,83.5C 150.8,83.2111 147.3,82.2111 144,80.5C 141.209,81.4062 138.376,82.0728 135.5,82.5C 135.339,79.4721 136.006,76.6388 137.5,74C 131.558,59.7161 135.558,49.2161 149.5,42.5 Z"/></g>
<g><path style="opacity:1" fill="#1c89c8" d="M 153.5,45.5 C 156.518,45.7038 159.518,46.0371 162.5,46.5C 160.627,53.4522 158.96,60.4522 157.5,67.5C 154.944,67.8678 152.944,67.0345 151.5,65C 152.859,58.5757 153.526,52.0757 153.5,45.5 Z"/></g>
<g><path style="opacity:1" fill="#228cd0" d="M 515.5,46.5 C 517.5,46.5 519.5,46.5 521.5,46.5C 521.5,48.1667 521.5,49.8333 521.5,51.5C 523.167,51.5 524.833,51.5 526.5,51.5C 526.5,53.5 526.5,55.5 526.5,57.5C 524.5,57.5 522.5,57.5 520.5,57.5C 520.5,59.1667 520.5,60.8333 520.5,62.5C 518.5,62.5 516.5,62.5 514.5,62.5C 514.5,60.8333 514.5,59.1667 514.5,57.5C 512.833,57.5 511.167,57.5 509.5,57.5C 509.5,55.5 509.5,53.5 509.5,51.5C 511.5,51.5 513.5,51.5 515.5,51.5C 515.5,49.8333 515.5,48.1667 515.5,46.5 Z"/></g>
<g><path style="opacity:1" fill="#0387cd" d="M 191.5,53.5 C 194.833,53.5 198.167,53.5 201.5,53.5C 201.5,63.1667 201.5,72.8333 201.5,82.5C 198.167,82.5 194.833,82.5 191.5,82.5C 191.5,72.8333 191.5,63.1667 191.5,53.5 Z"/></g>
<g><path style="opacity:1" fill="#1c8bcf" d="M 223.5,53.5 C 227.167,53.5 230.833,53.5 234.5,53.5C 234.666,63.1724 234.5,72.8391 234,82.5C 231.38,95.3987 223.547,100.732 210.5,98.5C 210.5,95.1667 210.5,91.8333 210.5,88.5C 216.44,89.9307 220.607,87.9307 223,82.5C 223.5,72.8391 223.666,63.1724 223.5,53.5 Z"/></g>
<g><path style="opacity:1" fill="#0f88ce" d="M 242.5,53.5 C 257.17,53.3334 271.837,53.5001 286.5,54C 287,54.5 287.5,55 288,55.5C 288.215,66.7803 286.548,77.7803 283,88.5C 281.073,93.4277 277.573,96.5944 272.5,98C 266.175,98.4995 259.842,98.6662 253.5,98.5C 253.5,95.1667 253.5,91.8333 253.5,88.5C 259.952,88.9155 266.285,88.4155 272.5,87C 274.317,85.2002 275.484,83.0336 276,80.5C 277.161,74.8737 277.994,69.207 278.5,63.5C 266.5,63.5 254.5,63.5 242.5,63.5C 242.5,60.1667 242.5,56.8333 242.5,53.5 Z"/></g>
<g><path style="opacity:1" fill="#0e88ce" d="M 404.5,53.5 C 409.5,53.5 414.5,53.5 419.5,53.5C 419.5,56.8333 419.5,60.1667 419.5,63.5C 415.486,63.3345 411.486,63.5012 407.5,64C 404.272,65.5629 402.105,68.0629 401,71.5C 400.243,77.1493 399.743,82.816 399.5,88.5C 409.172,88.6665 418.839,88.4998 428.5,88C 429.475,82.2588 429.808,76.4254 429.5,70.5C 432.833,70.5 436.167,70.5 439.5,70.5C 439.666,78.84 439.5,87.1733 439,95.5C 438.5,96 438,96.5 437.5,97C 421.926,98.6349 406.259,98.9683 390.5,98C 388.406,96.745 387.406,94.9116 387.5,92.5C 388.631,85.1539 389.797,77.8205 391,70.5C 393.146,62.865 397.646,57.1983 404.5,53.5 Z"/></g>
<g><path style="opacity:1" fill="#1e8ccf" d="M 50.5,54.5 C 52.1992,54.3398 53.8659,54.5065 55.5,55C 56.8333,56.3333 56.8333,57.6667 55.5,59C 47.6244,59.6168 44.1244,63.7835 45,71.5C 46.7796,77.1121 50.6129,79.7788 56.5,79.5C 55.9751,96.7881 63.9751,107.621 80.5,112C 87.2342,112.829 93.9008,112.496 100.5,111C 102.477,106.066 104.643,101.232 107,96.5C 110.567,93.2984 114.734,91.6317 119.5,91.5C 119.781,87.8121 120.281,84.1454 121,80.5C 122.049,79.4829 123.216,79.3162 124.5,80C 125.144,84.414 125.144,88.914 124.5,93.5C 132.617,95.2236 140.617,97.3903 148.5,100C 154.619,102.4 157.619,106.9 157.5,113.5C 157.39,117.106 156.723,120.606 155.5,124C 157.6,126.1 159.767,128.267 162,130.5C 162.212,140.166 162.045,149.832 161.5,159.5C 160.178,159.67 159.011,159.337 158,158.5C 158.72,150.947 156.72,144.28 152,138.5C 146.5,132.333 141,126.167 135.5,120C 134.207,119.51 132.873,119.343 131.5,119.5C 131.343,120.873 131.51,122.207 132,123.5C 136.526,128.072 140.693,132.905 144.5,138C 144.387,139.28 143.72,140.113 142.5,140.5C 138.979,137.813 135.979,134.647 133.5,131C 132.207,130.51 130.873,130.343 129.5,130.5C 131.38,135.583 134.38,140.083 138.5,144C 137.534,145.678 136.201,146.345 134.5,146C 132.321,142.488 129.488,139.654 126,137.5C 123.812,138.059 123.146,139.393 124,141.5C 126.683,144.016 129.183,146.683 131.5,149.5C 130.833,150.833 129.833,151.833 128.5,152.5C 126.833,150.167 124.833,148.167 122.5,146.5C 121.119,147 120.453,148 120.5,149.5C 126.172,160.011 134.672,167.011 146,170.5C 146.617,171.449 146.451,172.282 145.5,173C 139.151,173.83 133.818,171.83 129.5,167C 119.429,164.198 109.429,161.198 99.5,158C 94.9181,154.67 92.5847,150.17 92.5,144.5C 93.6966,138.047 95.3633,131.714 97.5,125.5C 97.1667,125.167 96.8333,124.833 96.5,124.5C 89.288,127.765 82.6213,126.932 76.5,122C 73.2638,117.352 69.2638,113.518 64.5,110.5C 54.4422,119.609 48.2755,130.942 46,144.5C 45.5002,153.494 45.3336,162.494 45.5,171.5C 43.8561,171.714 42.3561,171.38 41,170.5C 36.9962,145.822 43.4962,124.489 60.5,106.5C 55.0419,99.7918 52.3752,92.1252 52.5,83.5C 44.7581,82.0888 40.4248,77.4222 39.5,69.5C 40.03,62.0747 43.6967,57.0747 50.5,54.5 Z"/></g>
<g><path style="opacity:1" fill="#1b8ccf" d="M 80.5,63.5 C 84.35,63.7007 85.35,65.5341 83.5,69C 78.2894,69.5464 77.2894,67.713 80.5,63.5 Z"/></g>
<g><path style="opacity:1" fill="#188ccf" d="M 108.5,63.5 C 112.485,63.6294 113.818,65.4628 112.5,69C 107.728,69.8104 106.395,67.9771 108.5,63.5 Z"/></g>
<g><path style="opacity:1" fill="#1b8ccf" d="M 319.5,65.5 C 322.167,65.5 324.833,65.5 327.5,65.5C 327.5,66.5 327.5,67.5 327.5,68.5C 329.167,68.5 330.833,68.5 332.5,68.5C 332.5,71.1667 332.5,73.8333 332.5,76.5C 330.833,76.5 329.167,76.5 327.5,76.5C 327.5,84.5 327.5,92.5 327.5,100.5C 324.833,100.5 322.167,100.5 319.5,100.5C 319.5,92.5 319.5,84.5 319.5,76.5C 311.833,76.5 304.167,76.5 296.5,76.5C 296.5,73.8333 296.5,71.1667 296.5,68.5C 304.167,68.5 311.833,68.5 319.5,68.5C 319.5,67.5 319.5,66.5 319.5,65.5 Z"/></g>
<g><path style="opacity:1" fill="#2b8cc4" d="M 150.5,69.5 C 155.987,68.9615 158.153,71.2949 157,76.5C 154.048,80.4815 151.048,80.4815 148,76.5C 147.162,73.5193 147.995,71.1859 150.5,69.5 Z"/></g>
<g><path style="opacity:1" fill="#0a87cd" d="M 340.5,70.5 C 353.167,70.5 365.833,70.5 378.5,70.5C 378.5,73.8333 378.5,77.1667 378.5,80.5C 365.833,80.5 353.167,80.5 340.5,80.5C 340.5,77.1667 340.5,73.8333 340.5,70.5 Z"/></g>
<g><path style="opacity:1" fill="#fafdfe" d="M 548.5,74.5 C 553.852,74.9464 559.185,75.613 564.5,76.5C 567.046,86.2858 563.379,90.7858 553.5,90C 551.446,84.9498 549.78,79.7831 548.5,74.5 Z"/></g>
<g><path style="opacity:1" fill="#1d8dd0" d="M 498.5,75.5 C 502.485,75.6294 503.818,77.4628 502.5,81C 497.728,81.8104 496.395,79.9771 498.5,75.5 Z"/></g>
<g><path style="opacity:1" fill="#268fd1" d="M 526.5,75.5 C 531.159,75.0146 532.492,76.848 530.5,81C 525.728,81.8104 524.395,79.9771 526.5,75.5 Z"/></g>
<g><path style="opacity:1" fill="#1e8ccf" d="M 309.5,78.5 C 312.167,78.5 314.833,78.5 317.5,78.5C 317.463,85.0829 315.629,91.0829 312,96.5C 307.49,100.078 302.324,101.412 296.5,100.5C 296.5,97.8333 296.5,95.1667 296.5,92.5C 299.518,92.6646 302.518,92.498 305.5,92C 308.274,87.9913 309.607,83.4913 309.5,78.5 Z"/></g>
<g><path style="opacity:1" fill="#2f92d2" d="M 88.5,80.5 C 90.6746,80.6822 92.6746,81.3489 94.5,82.5C 96.7617,81.5331 99.095,80.8664 101.5,80.5C 99.8005,86.342 96.1338,87.842 90.5,85C 88.9632,83.8904 88.2965,82.3904 88.5,80.5 Z"/></g>
<g><path style="opacity:1" fill="#2690d1" d="M 508.5,92.5 C 511.09,92.3962 513.423,93.0629 515.5,94.5C 517.325,93.3489 519.325,92.6822 521.5,92.5C 520.092,98.0352 516.758,99.5352 511.5,97C 509.859,95.871 508.859,94.371 508.5,92.5 Z"/></g>
<g><path style="opacity:1" fill="#2a90d1" d="M 92.5,92.5 C 99.6318,92.802 102.465,96.4687 101,103.5C 95.8332,109.092 91.1666,108.759 87,102.5C 86.4482,97.8786 88.2815,94.5453 92.5,92.5 Z"/></g>
<g><path style="opacity:1" fill="#f4fafd" d="M 92.5,96.5 C 96.6046,96.4962 98.1046,98.4962 97,102.5C 93.828,105.388 91.6614,104.722 90.5,100.5C 90.7517,98.9271 91.4183,97.5938 92.5,96.5 Z"/></g>
<g><path style="opacity:1" fill="#f9fcfd" d="M 114.5,97.5 C 126.718,99.5126 138.552,102.846 150,107.5C 150.985,109.366 151.485,111.366 151.5,113.5C 150.649,118.236 149.483,122.902 148,127.5C 144.131,123.966 140.631,120.133 137.5,116C 129.131,114.201 126.131,117.368 128.5,125.5C 126.284,129.662 123.451,133.329 120,136.5C 120.093,139.956 119.093,142.956 117,145.5C 115.534,150.735 117.034,154.901 121.5,158C 121.167,158.167 120.833,158.333 120.5,158.5C 114.561,156.479 108.561,154.645 102.5,153C 99.8333,151 98.5,148.333 98.5,145C 101.951,130.754 105.784,116.587 110,102.5C 111.707,100.963 113.207,99.2959 114.5,97.5 Z"/></g>
<g><path style="opacity:1" fill="#e2f0f9" d="M 493.5,98.5 C 497.491,98.6478 498.324,100.314 496,103.5C 492.98,102.7 492.146,101.033 493.5,98.5 Z"/></g>
<g><path style="opacity:1" fill="#fbfdfe" d="M 477.5,100.5 C 479.857,100.337 482.19,100.503 484.5,101C 489.833,104.333 495.167,107.667 500.5,111C 503.282,116.468 501.949,120.801 496.5,124C 495.167,124.667 493.833,124.667 492.5,124C 486.669,120.919 481.002,117.585 475.5,114C 472.532,108.971 473.199,104.471 477.5,100.5 Z"/></g>
<g><path style="opacity:1" fill="#278fd1" d="M 118.5,101.5 C 121.95,100.756 123.616,102.09 123.5,105.5C 118.499,104.671 116.332,106.671 117,111.5C 117.804,112.804 118.971,113.471 120.5,113.5C 122.847,112.058 125.18,110.724 127.5,109.5C 126.742,116.109 123.075,118.276 116.5,116C 110.947,110.366 111.613,105.533 118.5,101.5 Z"/></g>
<g><path style="opacity:1" fill="#2990d1" d="M 504.5,108.5 C 504.5,107.5 504.5,106.5 504.5,105.5C 507.857,107.329 511.357,108.996 515,110.5C 519.186,109.439 523.019,107.772 526.5,105.5C 524.953,111.196 521.119,114.196 515,114.5C 510.8,113.652 507.3,111.652 504.5,108.5 Z"/></g>
<g><path style="opacity:1" fill="#178ace" d="M 211.5,114.5 C 214.5,114.5 217.5,114.5 220.5,114.5C 220.5,116.167 220.5,117.833 220.5,119.5C 225.844,119.334 231.177,119.501 236.5,120C 237.416,120.374 238.25,120.874 239,121.5C 239.69,130.675 238.69,139.675 236,148.5C 231.604,158.949 223.77,162.949 212.5,160.5C 212.5,157.167 212.5,153.833 212.5,150.5C 215.85,150.665 219.183,150.498 222.5,150C 224.286,149.215 225.786,148.049 227,146.5C 228.803,141.318 229.636,135.984 229.5,130.5C 220.494,130.334 211.494,130.5 202.5,131C 201.544,134.394 201.211,137.894 201.5,141.5C 198.5,141.5 195.5,141.5 192.5,141.5C 192.08,134.716 192.58,128.05 194,121.5C 194.75,120.874 195.584,120.374 196.5,120C 201.489,119.501 206.489,119.334 211.5,119.5C 211.5,117.833 211.5,116.167 211.5,114.5 Z"/></g>
<g><path style="opacity:1" fill="#1389ce" d="M 353.5,134.5 C 354.451,133.081 354.784,131.415 354.5,129.5C 349.833,129.5 345.167,129.5 340.5,129.5C 340.5,126.5 340.5,123.5 340.5,120.5C 345.695,120.821 350.695,120.487 355.5,119.5C 356.451,118.081 356.784,116.415 356.5,114.5C 359.833,114.5 363.167,114.5 366.5,114.5C 366.5,116.167 366.5,117.833 366.5,119.5C 373.508,119.334 380.508,119.5 387.5,120C 390.203,120.865 391.536,122.699 391.5,125.5C 390.297,132.499 389.13,139.499 388,146.5C 384.037,157.625 376.204,162.291 364.5,160.5C 364.5,157.167 364.5,153.833 364.5,150.5C 369.535,151.498 373.702,150.165 377,146.5C 378.803,141.318 379.636,135.984 379.5,130.5C 374.5,130.5 369.5,130.5 364.5,130.5C 364.444,138.295 362.611,145.629 359,152.5C 353.787,159.184 346.954,161.851 338.5,160.5C 338.5,157.167 338.5,153.833 338.5,150.5C 342.839,151.154 346.673,150.154 350,147.5C 352.26,143.46 353.427,139.127 353.5,134.5 Z"/></g>
<g><path style="opacity:1" fill="#e5f2f9" d="M 79.5,118.5 C 84.9846,117.348 90.6513,117.182 96.5,118C 90.9657,122.481 85.2991,122.647 79.5,118.5 Z"/></g>
<g><path style="opacity:1" fill="#f8fbfd" d="M 469.5,121.5 C 470.552,121.351 471.552,121.517 472.5,122C 478.095,127.051 483.595,132.218 489,137.5C 490.076,139.067 490.909,140.734 491.5,142.5C 485.811,149.352 479.978,156.018 474,162.5C 467.493,158.323 461.66,153.323 456.5,147.5C 456.887,146.28 457.72,145.613 459,145.5C 460.963,146.625 462.796,147.959 464.5,149.5C 465.646,148.855 466.646,148.022 467.5,147C 465,144.5 462.5,142 460,139.5C 459.217,137.681 459.717,136.348 461.5,135.5C 464.5,138.167 467.5,140.833 470.5,143.5C 471.833,142.833 472.833,141.833 473.5,140.5C 468.982,137.33 465.649,133.33 463.5,128.5C 464.873,128.343 466.207,128.51 467.5,129C 469.833,131.333 472.167,133.667 474.5,136C 477.914,136.757 478.914,135.59 477.5,132.5C 474.516,130.016 471.682,127.35 469,124.5C 468.53,123.423 468.697,122.423 469.5,121.5 Z"/></g>
<g><path style="opacity:1" fill="#cce6f4" d="M 479.5,121.5 C 482.564,121.981 483.398,123.314 482,125.5C 480.519,124.529 479.685,123.196 479.5,121.5 Z"/></g>
<g><path style="opacity:1" fill="#e7f3fa" d="M 502.5,126.5 C 505.315,126.204 507.982,127.204 510.5,129.5C 509.5,130.833 508.5,132.167 507.5,133.5C 506.057,130.923 504.39,128.59 502.5,126.5 Z"/></g>
<g><path style="opacity:1" fill="#0286cd" d="M 283.5,138.5 C 281.5,138.5 279.5,138.5 277.5,138.5C 277.5,146.833 277.5,155.167 277.5,163.5C 275.167,163.5 272.833,163.5 270.5,163.5C 270.5,155.167 270.5,146.833 270.5,138.5C 262.833,138.5 255.167,138.5 247.5,138.5C 247.5,136.167 247.5,133.833 247.5,131.5C 255.167,131.5 262.833,131.5 270.5,131.5C 270.5,130.5 270.5,129.5 270.5,128.5C 272.833,128.5 275.167,128.5 277.5,128.5C 277.5,129.5 277.5,130.5 277.5,131.5C 279.5,131.5 281.5,131.5 283.5,131.5C 283.5,133.833 283.5,136.167 283.5,138.5 Z"/></g>
<g><path style="opacity:1" fill="#dbedf7" d="M 533.5,127.5 C 534.552,127.351 535.552,127.517 536.5,128C 535.12,129.925 533.62,131.759 532,133.5C 531.365,132.034 530.531,130.7 529.5,129.5C 530.949,128.828 532.282,128.161 533.5,127.5 Z"/></g>
<g><path style="opacity:1" fill="#73bbe3" d="M 355.5,119.5 C 350.695,120.487 345.695,120.821 340.5,120.5C 340.5,123.5 340.5,126.5 340.5,129.5C 345.167,129.5 349.833,129.5 354.5,129.5C 354.784,131.415 354.451,133.081 353.5,134.5C 353.5,133.167 353.5,131.833 353.5,130.5C 348.833,130.5 344.167,130.5 339.5,130.5C 339.5,126.833 339.5,123.167 339.5,119.5C 344.833,119.5 350.167,119.5 355.5,119.5 Z"/></g>
<g><path style="opacity:1" fill="#e0eff8" d="M 153.5,129.5 C 155.582,129.624 157.082,130.624 158,132.5C 158.667,134.833 158.667,137.167 158,139.5C 156.167,137.167 154.333,134.833 152.5,132.5C 153.127,131.583 153.461,130.583 153.5,129.5 Z"/></g>
<g><path style="opacity:1" fill="#0a87cd" d="M 516.5,132.5 C 517.496,132.414 518.329,132.748 519,133.5C 519.667,142.833 519.667,152.167 519,161.5C 518,162.833 517,162.833 516,161.5C 515.194,151.756 515.361,142.089 516.5,132.5 Z"/></g>
<g><path style="opacity:1" fill="#9fd1ec" d="M 283.5,138.5 C 282.081,139.451 280.415,139.784 278.5,139.5C 278.826,147.684 278.492,155.684 277.5,163.5C 277.5,155.167 277.5,146.833 277.5,138.5C 279.5,138.5 281.5,138.5 283.5,138.5 Z"/></g>
<g><path style="opacity:1" fill="#158ace" d="M 260.5,141.5 C 262.833,141.5 265.167,141.5 267.5,141.5C 268.455,151.19 264.789,158.357 256.5,163C 253.518,163.498 250.518,163.665 247.5,163.5C 247.5,160.833 247.5,158.167 247.5,155.5C 257.19,156.137 261.523,151.471 260.5,141.5 Z"/></g>
<g><path style="opacity:1" fill="#5eb1df" d="M 291.5,132.5 C 304.167,132.5 316.833,132.5 329.5,132.5C 329.5,136.167 329.5,139.833 329.5,143.5C 316.833,143.5 304.167,143.5 291.5,143.5C 291.5,139.833 291.5,136.167 291.5,132.5 Z"/></g>
<g><path style="opacity:1" fill="#0085cd" d="M 292.5,133.5 C 304.5,133.5 316.5,133.5 328.5,133.5C 328.5,136.5 328.5,139.5 328.5,142.5C 316.5,142.5 304.5,142.5 292.5,142.5C 292.5,139.5 292.5,136.5 292.5,133.5 Z"/></g>
<g><path style="opacity:1" fill="#5eb2df" d="M 400.5,132.5 C 413.167,132.5 425.833,132.5 438.5,132.5C 438.5,136.167 438.5,139.833 438.5,143.5C 425.833,143.5 413.167,143.5 400.5,143.5C 400.5,139.833 400.5,136.167 400.5,132.5 Z"/></g>
<g><path style="opacity:1" fill="#0085cd" d="M 401.5,133.5 C 413.5,133.5 425.5,133.5 437.5,133.5C 437.5,136.5 437.5,139.5 437.5,142.5C 425.5,142.5 413.5,142.5 401.5,142.5C 401.5,139.5 401.5,136.5 401.5,133.5 Z"/></g>
<g><path style="opacity:1" fill="#298fd1" d="M 530.5,142.5 C 550.754,140.173 556.754,148.339 548.5,167C 543.092,169.444 537.426,170.11 531.5,169C 529.413,168.208 527.579,167.041 526,165.5C 524.43,159.947 524.097,154.281 525,148.5C 526.36,145.977 528.193,143.977 530.5,142.5 Z"/></g>
<g><path style="opacity:1" fill="#f6fafd" d="M 530.5,147.5 C 535.511,147.334 540.511,147.501 545.5,148C 546,148.5 546.5,149 547,149.5C 547.772,153.89 547.606,158.223 546.5,162.5C 545.975,163.192 545.308,163.692 544.5,164C 539.833,164.667 535.167,164.667 530.5,164C 527.851,158.437 527.851,152.937 530.5,147.5 Z"/></g>
<g><path style="opacity:1" fill="#1289ce" d="M 530.5,150.5 C 534.833,150.5 539.167,150.5 543.5,150.5C 543.67,151.822 543.337,152.989 542.5,154C 538.514,154.499 534.514,154.666 530.5,154.5C 530.5,153.167 530.5,151.833 530.5,150.5 Z"/></g>
<g><path style="opacity:1" fill="#f3f9fc" d="M 457.5,155.5 C 462.432,158.174 462.265,160.841 457,163.5C 455.72,163.387 454.887,162.72 454.5,161.5C 455.559,159.466 456.559,157.466 457.5,155.5 Z"/></g>
<g><path style="opacity:1" fill="#0e88cd" d="M 38.5,182.5 C 217.5,182.333 396.5,182.5 575.5,183C 578.583,183.786 580.749,185.619 582,188.5C 582.667,198.5 582.667,208.5 582,218.5C 580.413,221.756 577.913,223.923 574.5,225C 395.833,225.667 217.167,225.667 38.5,225C 35.2441,223.413 33.0774,220.913 32,217.5C 31.3333,208.167 31.3333,198.833 32,189.5C 33.425,186.394 35.5916,184.06 38.5,182.5 Z"/></g>
<g><path style="opacity:1" fill="#edf6fb" d="M 173.5,192.5 C 178.844,192.334 184.177,192.501 189.5,193C 195.319,196.098 195.986,200.098 191.5,205C 193.312,208.922 193.979,213.089 193.5,217.5C 191.856,217.714 190.356,217.38 189,216.5C 188.782,213.574 188.282,210.74 187.5,208C 184.183,207.502 180.85,207.335 177.5,207.5C 177.665,210.518 177.498,213.518 177,216.5C 175.333,217.833 173.667,217.833 172,216.5C 171.333,209.167 171.333,201.833 172,194.5C 172.717,193.956 173.217,193.289 173.5,192.5 Z"/></g>
<g><path style="opacity:1" fill="#e1f0f8" d="M 228.5,191.5 C 230.977,191.051 232.977,191.717 234.5,193.5C 232.263,194.132 230.597,195.465 229.5,197.5C 231.51,198.065 233.176,199.065 234.5,200.5C 233.68,202.111 232.346,202.778 230.5,202.5C 230.666,207.179 230.499,211.845 230,216.5C 228.333,217.833 226.667,217.833 225,216.5C 224.501,211.845 224.334,207.179 224.5,202.5C 222.654,202.778 221.32,202.111 220.5,200.5C 221.32,198.889 222.654,198.222 224.5,198.5C 224.961,195.697 226.295,193.363 228.5,191.5 Z"/></g>
<g><path style="opacity:1" fill="#f4f9fc" d="M 328.5,191.5 C 329.822,191.33 330.989,191.663 332,192.5C 333.422,198.963 335.089,205.296 337,211.5C 337.949,204.842 339.449,198.342 341.5,192C 344.14,191.161 346.473,191.661 348.5,193.5C 349.96,199.466 351.293,205.466 352.5,211.5C 354.189,205.222 355.689,198.888 357,192.5C 359.8,190.882 361.3,191.715 361.5,195C 359.584,202.166 357.75,209.333 356,216.5C 353.667,217.833 351.333,217.833 349,216.5C 348.007,209.713 346.507,203.046 344.5,196.5C 342.681,203.07 341.181,209.737 340,216.5C 337.936,217.591 335.769,217.758 333.5,217C 331.29,209.425 329.29,201.759 327.5,194C 327.743,193.098 328.077,192.265 328.5,191.5 Z"/></g>
<g><path style="opacity:1" fill="#f9fcfd" d="M 389.5,191.5 C 390.822,191.33 391.989,191.663 393,192.5C 393.5,200.827 393.666,209.16 393.5,217.5C 391.833,217.5 390.167,217.5 388.5,217.5C 388.197,208.749 388.53,200.082 389.5,191.5 Z"/></g>
<g><path style="opacity:1" fill="#eef6fb" d="M 400.5,191.5 C 401.833,191.5 403.167,191.5 404.5,191.5C 404.334,196.511 404.501,201.511 405,206.5C 407.593,204.451 410.093,202.285 412.5,200C 414.044,198.813 415.711,198.48 417.5,199C 418.451,199.718 418.617,200.551 418,201.5C 416.22,203.293 414.387,204.96 412.5,206.5C 414.592,209.681 416.925,212.681 419.5,215.5C 418.214,217.571 416.547,217.904 414.5,216.5C 412.5,214.167 410.5,211.833 408.5,209.5C 405.278,211.14 403.944,213.807 404.5,217.5C 402.856,217.714 401.356,217.38 400,216.5C 399.199,208.088 399.366,199.755 400.5,191.5 Z"/></g>
<g><path style="opacity:1" fill="#158ace" d="M 177.5,196.5 C 181.182,196.335 184.848,196.501 188.5,197C 190.14,199.776 189.473,201.776 186.5,203C 183.518,203.498 180.518,203.665 177.5,203.5C 177.5,201.167 177.5,198.833 177.5,196.5 Z"/></g>
<g><path style="opacity:1" fill="#f0f7fb" d="M 203.5,198.5 C 207.273,198.263 210.94,198.763 214.5,200C 218.322,202.552 218.988,205.552 216.5,209C 212.129,209.172 207.796,209.672 203.5,210.5C 206.624,215.618 209.957,215.785 213.5,211C 214.793,210.51 216.127,210.343 217.5,210.5C 217.95,214.224 216.283,216.391 212.5,217C 201.667,218.833 197.167,214.333 199,203.5C 200.025,201.313 201.525,199.646 203.5,198.5 Z"/></g>
<g><path style="opacity:1" fill="#eff7fb" d="M 242.5,198.5 C 245.518,198.335 248.518,198.502 251.5,199C 259.595,203.228 260.595,208.895 254.5,216C 248.956,218.42 243.789,217.92 239,214.5C 237.496,210.961 237.163,207.295 238,203.5C 239.193,201.503 240.693,199.836 242.5,198.5 Z"/></g>
<g><path style="opacity:1" fill="#f1f8fc" d="M 263.5,198.5 C 264.833,198.5 266.167,198.5 267.5,198.5C 267.351,199.552 267.517,200.552 268,201.5C 270.305,199.07 273.138,198.07 276.5,198.5C 276.5,199.833 276.5,201.167 276.5,202.5C 273.138,202.07 270.305,203.07 268,205.5C 267.501,209.486 267.334,213.486 267.5,217.5C 265.856,217.714 264.356,217.38 263,216.5C 262.212,210.418 262.379,204.418 263.5,198.5 Z"/></g>
<g><path style="opacity:1" fill="#f4f9fc" d="M 282.5,198.5 C 284.722,198.178 286.556,198.845 288,200.5C 291.394,197.968 294.894,197.968 298.5,200.5C 302.012,198.026 305.679,197.859 309.5,200C 310.126,200.75 310.626,201.584 311,202.5C 311.667,207.167 311.667,211.833 311,216.5C 309.644,217.38 308.144,217.714 306.5,217.5C 306.666,212.821 306.499,208.155 306,203.5C 304,200.833 302,200.833 300,203.5C 299.667,207.833 299.333,212.167 299,216.5C 297.644,217.38 296.144,217.714 294.5,217.5C 294.666,212.821 294.499,208.155 294,203.5C 292,200.833 290,200.833 288,203.5C 287.667,207.833 287.333,212.167 287,216.5C 285.644,217.38 284.144,217.714 282.5,217.5C 282.5,211.167 282.5,204.833 282.5,198.5 Z"/></g>
<g><path style="opacity:1" fill="#f5fafd" d="M 368.5,198.5 C 371.85,198.335 375.183,198.502 378.5,199C 379.931,199.465 381.097,200.299 382,201.5C 382.499,206.823 382.666,212.156 382.5,217.5C 380.508,217.672 378.842,217.005 377.5,215.5C 373.299,218.128 369.133,218.128 365,215.5C 364.056,212.653 364.556,210.153 366.5,208C 369.377,206.873 372.377,206.206 375.5,206C 378.249,203.577 377.749,202.077 374,201.5C 371.672,201.817 369.839,202.984 368.5,205C 366.681,205.783 365.348,205.283 364.5,203.5C 365.508,201.501 366.841,199.834 368.5,198.5 Z"/></g>
<g><path style="opacity:1" fill="#f1f8fc" d="M 426.5,198.5 C 433.8,196.816 438.8,199.316 441.5,206C 441.245,207.326 440.578,208.326 439.5,209C 435.514,209.499 431.514,209.666 427.5,209.5C 427.822,213.976 430.156,215.476 434.5,214C 435.725,212.437 437.225,211.27 439,210.5C 440.28,210.613 441.113,211.28 441.5,212.5C 440.307,214.527 438.64,216.027 436.5,217C 424.63,218.801 420.13,213.968 423,202.5C 424.376,201.295 425.542,199.962 426.5,198.5 Z"/></g>
<g><path style="opacity:1" fill="#f2f8fc" d="M 446.5,198.5 C 448.722,198.178 450.556,198.845 452,200.5C 454.99,197.979 457.824,197.979 460.5,200.5C 457.854,202.018 455.021,203.351 452,204.5C 451.667,208.5 451.333,212.5 451,216.5C 449.644,217.38 448.144,217.714 446.5,217.5C 446.5,211.167 446.5,204.833 446.5,198.5 Z"/></g>
<g><path style="opacity:1" fill="#3c97d4" d="M 206.5,201.5 C 210.349,201.019 212.349,202.686 212.5,206.5C 209.428,206.817 206.428,206.484 203.5,205.5C 204.524,204.148 205.524,202.815 206.5,201.5 Z"/></g>
<g><path style="opacity:1" fill="#1d8bcf" d="M 245.5,201.5 C 251.867,201.872 254.034,205.206 252,211.5C 249,215.5 246,215.5 243,211.5C 241.861,207.579 242.695,204.246 245.5,201.5 Z"/></g>
<g><path style="opacity:1" fill="#459ad5" d="M 429.5,201.5 C 432.792,201.12 435.125,202.453 436.5,205.5C 433.167,206.833 429.833,206.833 426.5,205.5C 427.524,204.148 428.524,202.815 429.5,201.5 Z"/></g>
<g><path style="opacity:1" fill="#208ccf" d="M 373.5,208.5 C 374.833,208.5 376.167,208.5 377.5,208.5C 378.041,212.295 376.375,214.295 372.5,214.5C 370.734,214.566 369.734,213.732 369.5,212C 370.347,210.229 371.68,209.063 373.5,208.5 Z"/></g>
</svg>
