<?xml version="1.0" encoding="UTF-8"?>
<!DOCTYPE svg PUBLIC "-//W3C//DTD SVG 1.1//EN" "http://www.w3.org/Graphics/SVG/1.1/DTD/svg11.dtd">
<svg xmlns="http://www.w3.org/2000/svg" version="1.1" width="778px" height="182px" style="shape-rendering:geometricPrecision; text-rendering:geometricPrecision; image-rendering:optimizeQuality; fill-rule:evenodd; clip-rule:evenodd" xmlns:xlink="http://www.w3.org/1999/xlink">
<g><path style="opacity:1" fill="#fefefe" d="M -0.5,-0.5 C 258.833,-0.5 518.167,-0.5 777.5,-0.5C 777.5,60.1667 777.5,120.833 777.5,181.5C 518.167,181.5 258.833,181.5 -0.5,181.5C -0.5,120.833 -0.5,60.1667 -0.5,-0.5 Z"/></g>
<g><path style="opacity:1" fill="#d07e19" d="M 121.5,19.5 C 122.978,19.238 124.311,19.5713 125.5,20.5C 126.167,25.8333 129.167,28.8333 134.5,29.5C 135.747,31.0064 135.747,32.5064 134.5,34C 129.333,35.1667 126.167,38.3333 125,43.5C 124.439,44.0219 123.772,44.3552 123,44.5C 121.116,42.5498 119.782,40.2165 119,37.5C 116.808,35.7647 114.308,34.598 111.5,34C 110.39,30.0838 112.057,28.0838 116.5,28C 118.816,25.5544 120.483,22.721 121.5,19.5 Z"/></g>
<g><path style="opacity:1" fill="#19a3cb" d="M 68.5,23.5 C 70.3084,23.4914 71.9751,23.9914 73.5,25C 87.7548,35.0441 101.922,45.2107 116,55.5C 118.319,61.6838 116.152,64.5171 109.5,64C 96.4036,54.7044 83.237,45.5377 70,36.5C 57.8425,44.5811 45.8425,52.9144 34,61.5C 33.6667,94.1667 33.3333,126.833 33,159.5C 29.3813,162.343 26.048,162.01 23,158.5C 22.3333,124.833 22.3333,91.1667 23,57.5C 23.4652,56.0692 24.2986,54.9025 25.5,54C 39.9001,43.8114 54.2334,33.6447 68.5,23.5 Z"/></g>
<g><path style="opacity:1" fill="#2299bc" d="M 545.5,70.5 C 546.451,69.0813 546.784,67.4147 546.5,65.5C 535.654,65.1722 524.987,65.5056 514.5,66.5C 514.666,70.8461 514.499,75.1794 514,79.5C 511.263,80.6105 508.429,80.7772 505.5,80C 504.167,72.6667 504.167,65.3333 505.5,58C 512.158,57.5004 518.825,57.3337 525.5,57.5C 525.335,54.1501 525.502,50.8168 526,47.5C 529,46.1667 532,46.1667 535,47.5C 535.498,50.8168 535.665,54.1501 535.5,57.5C 542.175,57.3337 548.842,57.5004 555.5,58C 558.089,80.1579 549.089,95.4913 528.5,104C 526.559,104.743 524.726,104.576 523,103.5C 521.85,101.246 521.516,98.9129 522,96.5C 535.653,93.0167 543.487,84.35 545.5,70.5 Z"/></g>
<g><path style="opacity:1" fill="#2199bc" d="M 222.5,48.5 C 225.448,48.2229 228.281,48.5562 231,49.5C 231.82,60.7431 231.653,71.9098 230.5,83C 227.571,83.7772 224.737,83.6105 222,82.5C 221.19,71.0905 221.357,59.7572 222.5,48.5 Z"/></g>
<g><path style="opacity:1" fill="#259abd" d="M 256.5,47.5 C 259.448,47.2229 262.281,47.5562 265,48.5C 265.768,60.1986 265.435,71.8653 264,83.5C 260.629,96.133 252.629,102.8 240,103.5C 238.691,101.253 238.025,98.9199 238,96.5C 245.857,94.6384 251.191,89.9717 254,82.5C 255.099,70.8142 255.933,59.1475 256.5,47.5 Z"/></g>
<g><path style="opacity:1" fill="#1d98bb" d="M 451.5,91.5 C 450.957,91.56 450.624,91.8933 450.5,92.5C 460.5,93.8333 470.5,93.8333 480.5,92.5C 480.376,91.8933 480.043,91.56 479.5,91.5C 477.316,86.2956 474.982,81.1289 472.5,76C 474.417,72.0415 477.417,70.8749 481.5,72.5C 485.641,81.5862 489.974,90.5862 494.5,99.5C 494.291,100.086 493.957,100.586 493.5,101C 474.836,101.5 456.17,101.667 437.5,101.5C 444.343,84.4735 450.51,67.1402 456,49.5C 456.689,48.6433 457.522,47.9767 458.5,47.5C 460.729,48.5771 463.063,49.2437 465.5,49.5C 461.831,63.8401 457.164,77.8401 451.5,91.5 Z"/></g>
<g><path style="opacity:1" fill="#2199bc" d="M 681.5,47.5 C 684.119,47.2317 686.619,47.565 689,48.5C 689.498,51.8168 689.665,55.1501 689.5,58.5C 697.42,58.185 705.253,58.5183 713,59.5C 713.841,72.9221 711.841,85.9221 707,98.5C 704.24,105.868 700.74,106.201 696.5,99.5C 700.621,89.2274 702.955,78.5608 703.5,67.5C 698.167,67.5 692.833,67.5 687.5,67.5C 685.079,79.2661 680.245,89.9328 673,99.5C 668.74,104.983 664.907,104.65 661.5,98.5C 669.207,89.4198 674.54,79.0864 677.5,67.5C 672.489,67.6659 667.489,67.4993 662.5,67C 661.398,64.5991 661.231,62.0991 662,59.5C 667.741,58.5251 673.575,58.1918 679.5,58.5C 679.01,54.5128 679.676,50.8462 681.5,47.5 Z"/></g>
<g><path style="opacity:1" fill="#289abd" d="M 278.5,50.5 C 296.077,50.1746 313.577,50.5079 331,51.5C 331.057,78.7764 318.057,96.4431 292,104.5C 288.827,102.127 287.993,99.1272 289.5,95.5C 307.778,90.229 318.112,78.229 320.5,59.5C 306.163,59.6666 291.829,59.4999 277.5,59C 276.041,55.9295 276.374,53.0961 278.5,50.5 Z"/></g>
<g><path style="opacity:1" fill="#2299bc" d="M 384.5,75.5 C 381.5,75.5 378.5,75.5 375.5,75.5C 375.5,84.8333 375.5,94.1667 375.5,103.5C 374.508,105.026 373.008,105.693 371,105.5C 369.564,105.441 368.231,105.108 367,104.5C 366.667,96.8333 366.333,89.1667 366,81.5C 361.321,91.5127 353.987,98.846 344,103.5C 340.568,101.636 339.401,98.9694 340.5,95.5C 348.359,91.1406 354.359,84.9739 358.5,77C 352.5,76.6667 346.5,76.3333 340.5,76C 339.398,73.5991 339.231,71.0991 340,68.5C 348.749,67.5161 357.582,67.1828 366.5,67.5C 364.676,58.8406 367.842,56.1739 376,59.5C 376.497,62.146 376.664,64.8127 376.5,67.5C 384.5,65.4946 387.166,68.1612 384.5,75.5 Z"/></g>
<g><path style="opacity:1" fill="#1e98bb" d="M 593.5,58.5 C 596.119,58.2317 598.619,58.565 601,59.5C 601.497,62.146 601.664,64.8127 601.5,67.5C 609.657,65.4857 612.324,68.319 609.5,76C 606.854,76.4974 604.187,76.6641 601.5,76.5C 601.818,86.0834 601.485,95.5834 600.5,105C 597.901,105.769 595.401,105.602 593,104.5C 592.667,96.5 592.333,88.5 592,80.5C 586.94,91.2334 579.107,98.7334 568.5,103C 566.612,101.05 565.446,98.8829 565,96.5C 573.126,92.0312 579.293,85.6979 583.5,77.5C 577.862,76.6701 572.196,76.1701 566.5,76C 565.398,73.5991 565.231,71.0991 566,68.5C 574.749,67.5161 583.582,67.1828 592.5,67.5C 592.264,64.3915 592.597,61.3915 593.5,58.5 Z"/></g>
<g><path style="opacity:1" fill="#cf7c13" d="M 52.5,60.5 C 57.43,60.1975 62.2633,60.5308 67,61.5C 71.0133,74.4839 66.5133,79.3172 53.5,76C 53,75.5 52.5,75 52,74.5C 51.2266,69.7481 51.3932,65.0815 52.5,60.5 Z"/></g>
<g><path style="opacity:1" fill="#d07e17" d="M 76.5,60.5 C 81.43,60.1975 86.2633,60.5308 91,61.5C 91.8015,66.419 91.6349,71.2523 90.5,76C 76.2481,79.5798 71.5815,74.4131 76.5,60.5 Z"/></g>
<g><path style="opacity:1" fill="#68bbd2" d="M 514.5,66.5 C 524.987,65.5056 535.654,65.1722 546.5,65.5C 546.784,67.4147 546.451,69.0813 545.5,70.5C 545.5,69.1667 545.5,67.8333 545.5,66.5C 535.167,66.5 524.833,66.5 514.5,66.5 Z"/></g>
<g><path style="opacity:1" fill="#1e98bb" d="M 396.5,71.5 C 408.167,71.5 419.833,71.5 431.5,71.5C 431.5,74.5 431.5,77.5 431.5,80.5C 419.829,80.6665 408.162,80.4999 396.5,80C 395.214,77.1684 395.214,74.3351 396.5,71.5 Z"/></g>
<g><path style="opacity:1" fill="#1a98bb" d="M 618.5,71.5 C 630.171,71.3335 641.838,71.5001 653.5,72C 654.602,74.4009 654.769,76.9009 654,79.5C 642.576,80.6537 631.076,80.8204 619.5,80C 618.556,77.2809 618.223,74.4475 618.5,71.5 Z"/></g>
<g><path style="opacity:1" fill="#1c98bb" d="M 719.5,71.5 C 731.171,71.3335 742.838,71.5001 754.5,72C 755.602,74.4009 755.769,76.9009 755,79.5C 743.576,80.6537 732.076,80.8204 720.5,80C 719.556,77.2809 719.223,74.4475 719.5,71.5 Z"/></g>
<g><path style="opacity:1" fill="#94cedf" d="M 384.5,75.5 C 382.052,76.4731 379.385,76.8064 376.5,76.5C 376.827,85.6822 376.493,94.6822 375.5,103.5C 375.5,94.1667 375.5,84.8333 375.5,75.5C 378.5,75.5 381.5,75.5 384.5,75.5 Z"/></g>
<g><path style="opacity:1" fill="#cf7c14" d="M 52.5,84.5 C 57.43,84.1975 62.2633,84.5308 67,85.5C 67.8015,90.419 67.6349,95.2523 66.5,100C 61.798,100.828 57.1313,100.662 52.5,99.5C 51.1712,94.4699 51.1712,89.4699 52.5,84.5 Z"/></g>
<g><path style="opacity:1" fill="#cf7c14" d="M 77.5,84.5 C 82.0986,84.2 86.5986,84.5333 91,85.5C 91.8015,90.419 91.6349,95.2523 90.5,100C 75.7565,103.428 71.4232,98.261 77.5,84.5 Z"/></g>
<g><path style="opacity:1" fill="#13a2cb" d="M 113.5,123.5 C 99.4841,123.167 85.4841,123.501 71.5,124.5C 71.6236,125.107 71.9569,125.44 72.5,125.5C 87.0284,134.688 101.528,144.021 116,153.5C 117.449,162.669 113.949,164.836 105.5,160C 87.3376,147.751 69.0043,135.751 50.5,124C 47.4801,121.736 46.8135,118.903 48.5,115.5C 49.5769,114.295 50.9102,113.628 52.5,113.5C 70.5,113.5 88.5,113.5 106.5,113.5C 106.5,105.5 106.5,97.5 106.5,89.5C 109.382,83.2412 112.882,82.9079 117,88.5C 117.667,99.1667 117.667,109.833 117,120.5C 116.578,122.426 115.411,123.426 113.5,123.5 Z"/></g>
<g><path style="opacity:1" fill="#afdbe7" d="M 451.5,91.5 C 460.833,92.8333 470.167,92.8333 479.5,91.5C 480.043,91.56 480.376,91.8933 480.5,92.5C 470.5,93.8333 460.5,93.8333 450.5,92.5C 450.624,91.8933 450.957,91.56 451.5,91.5 Z"/></g>
<g><path style="opacity:1" fill="#13a2cb" d="M 154.5,101.5 C 156.655,101.372 158.655,101.872 160.5,103C 168.912,109.289 177.412,115.456 186,121.5C 186.667,127.833 186.667,134.167 186,140.5C 185.5,141 185,141.5 184.5,142C 174.5,142.667 164.5,142.667 154.5,142C 150.434,138.255 150.767,134.922 155.5,132C 162.158,131.5 168.825,131.334 175.5,131.5C 175.919,128.675 174.919,126.509 172.5,125C 167.833,121.667 163.167,118.333 158.5,115C 156.711,114.48 155.044,114.813 153.5,116C 148.333,119.833 143.167,123.667 138,127.5C 137.5,135.493 137.334,143.493 137.5,151.5C 152.504,151.333 167.504,151.5 182.5,152C 187.395,154.823 187.729,158.157 183.5,162C 165.5,162.667 147.5,162.667 129.5,162C 128.692,161.692 128.025,161.192 127.5,160.5C 126.353,147.879 126.186,135.212 127,122.5C 136.043,115.284 145.21,108.284 154.5,101.5 Z"/></g>
<g><path style="opacity:1" fill="#ccecf4" d="M 106.5,89.5 C 106.5,97.5 106.5,105.5 106.5,113.5C 88.5,113.5 70.5,113.5 52.5,113.5C 69.9921,112.503 87.6588,112.17 105.5,112.5C 105.175,104.648 105.508,96.9818 106.5,89.5 Z"/></g>
<g><path style="opacity:1" fill="#66c6df" d="M 113.5,123.5 C 99.8333,124.167 86.1667,124.833 72.5,125.5C 71.9569,125.44 71.6236,125.107 71.5,124.5C 85.4841,123.501 99.4841,123.167 113.5,123.5 Z"/></g>
<g><path style="opacity:1" fill="#1f99bc" d="M 291.5,140.5 C 290.51,146.31 290.177,152.31 290.5,158.5C 288.5,158.5 286.5,158.5 284.5,158.5C 284.823,152.31 284.49,146.31 283.5,140.5C 282.5,140.5 281.5,140.5 280.5,140.5C 280.5,138.833 280.5,137.167 280.5,135.5C 281.833,135.5 283.167,135.5 284.5,135.5C 284.471,125.67 289.138,122.504 298.5,126C 297.663,127.011 297.33,128.178 297.5,129.5C 292.5,128.5 290.5,130.5 291.5,135.5C 293.167,135.5 294.833,135.5 296.5,135.5C 296.5,137.167 296.5,138.833 296.5,140.5C 294.833,140.5 293.167,140.5 291.5,140.5 Z"/></g>
<g><path style="opacity:1" fill="#1e99bc" d="M 478.5,125.5 C 480.833,125.5 483.167,125.5 485.5,125.5C 485.5,135.167 485.5,144.833 485.5,154.5C 486.5,154.5 487.5,154.5 488.5,154.5C 488.5,156.167 488.5,157.833 488.5,159.5C 486.143,159.663 483.81,159.497 481.5,159C 480.299,158.097 479.465,156.931 479,155.5C 478.5,145.506 478.334,135.506 478.5,125.5 Z"/></g>
<g><path style="opacity:1" fill="#249abd" d="M 493.5,125.5 C 495.833,125.5 498.167,125.5 500.5,125.5C 500.334,132.175 500.5,138.842 501,145.5C 503.463,142.035 506.296,138.869 509.5,136C 511.833,135.333 514.167,135.333 516.5,136C 514.021,139.313 511.355,142.48 508.5,145.5C 511.711,150.089 515.045,154.589 518.5,159C 515.833,159.667 513.167,159.667 510.5,159C 508.457,155.747 506.29,152.58 504,149.5C 500.882,152.07 499.715,155.404 500.5,159.5C 498.167,159.5 495.833,159.5 493.5,159.5C 493.5,148.167 493.5,136.833 493.5,125.5 Z"/></g>
<g><path style="opacity:1" fill="#2299bc" d="M 223.5,127.5 C 229.509,127.334 235.509,127.501 241.5,128C 248.106,130.253 250.273,134.753 248,141.5C 246.96,144.04 245.126,145.707 242.5,146.5C 245.291,150.582 247.958,154.749 250.5,159C 247.833,159.667 245.167,159.667 242.5,159C 240.167,155.333 237.833,151.667 235.5,148C 233.866,147.506 232.199,147.34 230.5,147.5C 230.5,151.5 230.5,155.5 230.5,159.5C 228.167,159.5 225.833,159.5 223.5,159.5C 223.5,148.833 223.5,138.167 223.5,127.5 Z"/></g>
<g><path style="opacity:1" fill="#2e9dbe" d="M 404.5,127.5 C 407.119,127.232 409.619,127.565 412,128.5C 413.462,136.145 414.796,143.812 416,151.5C 417.783,143.533 419.949,135.7 422.5,128C 424.769,127.242 426.936,127.409 429,128.5C 430.845,136.215 432.845,143.881 435,151.5C 436.009,143.777 437.343,136.11 439,128.5C 441.041,127.577 443.208,127.244 445.5,127.5C 444.248,137.593 442.415,147.593 440,157.5C 437.196,159.344 434.03,160.011 430.5,159.5C 429.142,151.734 427.309,144.068 425,136.5C 423.335,143.826 421.669,151.159 420,158.5C 416.943,159.451 413.777,159.784 410.5,159.5C 409.124,148.708 407.124,138.042 404.5,127.5 Z"/></g>
<g><path style="opacity:1" fill="#f5fafc" d="M 230.5,132.5 C 233.518,132.335 236.518,132.502 239.5,133C 241.68,135.418 242.013,138.084 240.5,141C 237.274,142.199 233.941,142.699 230.5,142.5C 230.5,139.167 230.5,135.833 230.5,132.5 Z"/></g>
<g><path style="opacity:1" fill="#329ebf" d="M 262.5,134.5 C 273.284,133.779 277.951,138.613 276.5,149C 271.167,149.333 265.833,149.667 260.5,150C 261.748,153.581 264.248,155.081 268,154.5C 271.805,152.598 274.638,153.431 276.5,157C 268.298,161.263 261.131,160.096 255,153.5C 251.967,144.909 254.467,138.575 262.5,134.5 Z"/></g>
<g><path style="opacity:1" fill="#2a9cbe" d="M 308.5,134.5 C 321.516,134.676 326.35,141.009 323,153.5C 318.869,159.115 313.369,160.948 306.5,159C 298.386,154.272 296.553,147.772 301,139.5C 303.426,137.548 305.926,135.881 308.5,134.5 Z"/></g>
<g><path style="opacity:1" fill="#2a9cbe" d="M 341.5,134.5 C 343.167,134.5 344.833,134.5 346.5,134.5C 346.5,136.5 346.5,138.5 346.5,140.5C 343.03,139.875 340.196,140.875 338,143.5C 337.501,148.823 337.334,154.156 337.5,159.5C 335.167,159.5 332.833,159.5 330.5,159.5C 330.5,151.5 330.5,143.5 330.5,135.5C 332.5,135.5 334.5,135.5 336.5,135.5C 336.351,136.552 336.517,137.552 337,138.5C 338.397,136.93 339.897,135.596 341.5,134.5 Z"/></g>
<g><path style="opacity:1" fill="#269bbd" d="M 362.5,134.5 C 366.803,133.796 370.303,135.13 373,138.5C 378.76,132.924 384.093,133.257 389,139.5C 389.5,146.158 389.666,152.825 389.5,159.5C 387.167,159.5 384.833,159.5 382.5,159.5C 382.666,153.491 382.499,147.491 382,141.5C 379.167,140.13 376.5,140.464 374,142.5C 373.501,148.157 373.334,153.824 373.5,159.5C 371.167,159.5 368.833,159.5 366.5,159.5C 366.666,153.491 366.499,147.491 366,141.5C 363.167,140.13 360.5,140.464 358,142.5C 357.501,148.157 357.334,153.824 357.5,159.5C 355.167,159.5 352.833,159.5 350.5,159.5C 350.5,151.5 350.5,143.5 350.5,135.5C 353.144,135.16 355.477,135.827 357.5,137.5C 359.396,136.725 361.063,135.725 362.5,134.5 Z"/></g>
<g><path style="opacity:1" fill="#279bbd" d="M 457.5,134.5 C 462.39,133.784 466.556,135.117 470,138.5C 471.425,145.385 471.925,152.385 471.5,159.5C 469.5,159.5 467.5,159.5 465.5,159.5C 465.649,158.448 465.483,157.448 465,156.5C 460.863,159.829 456.363,160.329 451.5,158C 448.561,153.982 448.895,150.315 452.5,147C 456.513,145.396 460.513,143.896 464.5,142.5C 464.023,141.522 463.357,140.689 462.5,140C 459.484,139.336 456.651,139.836 454,141.5C 451.252,140.806 450.418,139.306 451.5,137C 453.723,136.434 455.723,135.6 457.5,134.5 Z"/></g>
<g><path style="opacity:1" fill="#319ebf" d="M 529.5,134.5 C 540.284,133.779 544.951,138.613 543.5,149C 538.167,149.333 532.833,149.667 527.5,150C 528.257,151.512 529.257,152.846 530.5,154C 533.894,154.752 537.227,154.585 540.5,153.5C 543.377,155.913 543.044,157.747 539.5,159C 526.729,161.395 520.563,156.228 521,143.5C 522.688,139.315 525.521,136.315 529.5,134.5 Z"/></g>
<g><path style="opacity:1" fill="#2c9cbe" d="M 561.5,134.5 C 563.167,134.5 564.833,134.5 566.5,134.5C 566.709,139.187 564.376,141.52 559.5,141.5C 558.667,142.5 557.833,143.5 557,144.5C 556.501,149.489 556.334,154.489 556.5,159.5C 554.167,159.5 551.833,159.5 549.5,159.5C 549.5,151.5 549.5,143.5 549.5,135.5C 552.652,135.047 555.152,136.047 557,138.5C 558.397,136.93 559.897,135.596 561.5,134.5 Z"/></g>
<g><path style="opacity:1" fill="#f5fafc" d="M 263.5,139.5 C 267.851,138.533 270.185,140.2 270.5,144.5C 267.102,144.82 263.768,144.487 260.5,143.5C 261.524,142.148 262.524,140.815 263.5,139.5 Z"/></g>
<g><path style="opacity:1" fill="#82c7da" d="M 283.5,140.5 C 284.49,146.31 284.823,152.31 284.5,158.5C 286.5,158.5 288.5,158.5 290.5,158.5C 290.177,152.31 290.51,146.31 291.5,140.5C 291.5,146.833 291.5,153.167 291.5,159.5C 288.833,159.5 286.167,159.5 283.5,159.5C 283.5,153.167 283.5,146.833 283.5,140.5 Z"/></g>
<g><path style="opacity:1" fill="#f9fcfd" d="M 308.5,140.5 C 315.276,139.776 318.11,142.776 317,149.5C 316.252,153.914 313.752,155.414 309.5,154C 308.333,153.5 307.5,152.667 307,151.5C 306.013,147.525 306.513,143.859 308.5,140.5 Z"/></g>
<g><path style="opacity:1" fill="#f5fafc" d="M 530.5,139.5 C 534.851,138.533 537.185,140.2 537.5,144.5C 534.102,144.82 530.768,144.487 527.5,143.5C 528.524,142.148 529.524,140.815 530.5,139.5 Z"/></g>
<g><path style="opacity:1" fill="#f7fbfc" d="M 458.5,148.5 C 460.5,148.5 462.5,148.5 464.5,148.5C 464.574,153.82 461.907,155.82 456.5,154.5C 456.253,152.142 456.919,150.142 458.5,148.5 Z"/></g>
</svg>
